<?xml version="1.0" standalone="no"?><!DOCTYPE svg PUBLIC "-//W3C//DTD SVG 1.1//EN" "http://www.w3.org/Graphics/SVG/1.1/DTD/svg11.dtd"><svg t="1673349759017" class="icon" viewBox="0 0 1024 1024" version="1.1" xmlns="http://www.w3.org/2000/svg" p-id="2686" xmlns:xlink="http://www.w3.org/1999/xlink" width="200" height="200"><path d="M65 110m45 0l806 0q45 0 45 45l0 0q0 45-45 45l-806 0q-45 0-45-45l0 0q0-45 45-45Z" p-id="2687"></path><path d="M65 467.5m45 0l806 0q45 0 45 45l0 0q0 45-45 45l-806 0q-45 0-45-45l0 0q0-45 45-45Z" p-id="2688"></path><path d="M65 825m45 0l806 0q45 0 45 45l0 0q0 45-45 45l-806 0q-45 0-45-45l0 0q0-45 45-45Z" p-id="2689"></path></svg>